<svg xmlns="http://www.w3.org/2000/svg" fill="none" viewBox="0 0 24 24" id="Shipment-Barcode--Streamline-Ultimate.svg" height="24" width="24"><desc>Shipment Barcode Streamline Icon: https://streamlinehq.com</desc><path fill="#ffbc44" d="M1.1137714285714286 2.0604c0 -0.25097142857142857 0.09977142857142857 -0.4918285714285714 0.27737142857142855 -0.6692571428571429 0.1774285714285714 -0.17759999999999998 0.41828571428571426 -0.27737142857142855 0.6692571428571429 -0.27737142857142855h19.879199999999997c0.25097142857142857 0 0.4918285714285714 0.09977142857142857 0.6692571428571429 0.27737142857142855 0.17759999999999998 0.1774285714285714 0.27737142857142855 0.41828571428571426 0.27737142857142855 0.6692571428571429v19.879199999999997c0 0.25097142857142857 -0.09977142857142857 0.4918285714285714 -0.27737142857142855 0.6692571428571429s-0.41828571428571426 0.27737142857142855 -0.6692571428571429 0.27737142857142855H2.0604c-0.25097142857142857 0 -0.4918285714285714 -0.09977142857142857 -0.6692571428571429 -0.27737142857142855 -0.17759999999999998 -0.1774285714285714 -0.27737142857142855 -0.41828571428571426 -0.27737142857142855 -0.6692571428571429V2.0604Z" stroke-width="1"></path><path fill="#ffdda1" d="M21.9396 1.1137714285714286H2.0604c-0.25097142857142857 0 -0.4918285714285714 0.09977142857142857 -0.6692571428571429 0.27737142857142855 -0.17759999999999998 0.1774285714285714 -0.27737142857142855 0.41828571428571426 -0.27737142857142855 0.6692571428571429v4.665085714285714c0 -0.2511428571428571 0.09977142857142857 -0.49199999999999994 0.27737142857142855 -0.6694285714285714 0.1774285714285714 -0.17759999999999998 0.41828571428571426 -0.2772 0.6692571428571429 -0.2772h19.879199999999997c0.25097142857142857 0 0.4918285714285714 0.0996 0.6692571428571429 0.2772 0.17759999999999998 0.17759999999999998 0.27737142857142855 0.41828571428571426 0.27737142857142855 0.6694285714285714V2.0604c0 -0.25097142857142857 -0.09977142857142857 -0.4918285714285714 -0.27737142857142855 -0.6692571428571429 -0.1774285714285714 -0.17759999999999998 -0.41828571428571426 -0.27737142857142855 -0.6692571428571429 -0.27737142857142855Z" stroke-width="1"></path><path stroke="#191919" stroke-linecap="round" stroke-linejoin="round" d="M1.1137714285714286 2.0604c0 -0.25097142857142857 0.09977142857142857 -0.4918285714285714 0.27737142857142855 -0.6692571428571429 0.1774285714285714 -0.17759999999999998 0.41828571428571426 -0.27737142857142855 0.6692571428571429 -0.27737142857142855h19.879199999999997c0.25097142857142857 0 0.4918285714285714 0.09977142857142857 0.6692571428571429 0.27737142857142855 0.17759999999999998 0.1774285714285714 0.27737142857142855 0.41828571428571426 0.27737142857142855 0.6692571428571429v19.879199999999997c0 0.25097142857142857 -0.09977142857142857 0.4918285714285714 -0.27737142857142855 0.6692571428571429s-0.41828571428571426 0.27737142857142855 -0.6692571428571429 0.27737142857142855H2.0604c-0.25097142857142857 0 -0.4918285714285714 -0.09977142857142857 -0.6692571428571429 -0.27737142857142855 -0.17759999999999998 -0.1774285714285714 -0.27737142857142855 -0.41828571428571426 -0.27737142857142855 -0.6692571428571429V2.0604Z" stroke-width="1"></path><path fill="#ffffff" d="M15.3132 8.698114285714285c0 0.08382857142857142 -0.022114285714285715 0.16611428571428571 -0.06445714285714285 0.23845714285714284 -0.042 0.07234285714285714 -0.10268571428571428 0.13217142857142858 -0.17554285714285714 0.17348571428571427 -0.07268571428571428 0.04131428571428571 -0.1553142857142857 0.06257142857142857 -0.23914285714285716 0.06154285714285714 -0.08365714285714286 -0.0010285714285714284 -0.1656 -0.024342857142857142 -0.23742857142857143 -0.06737142857142857L12.236571428571427 7.684285714285714l-2.8577142857142857 1.4900571428571427c-0.07217142857142857 0.03754285714285714 -0.15274285714285712 0.055885714285714275 -0.234 0.05331428571428571 -0.08125714285714285 -0.0025714285714285713 -0.16045714285714285 -0.026228571428571427 -0.23005714285714288 -0.06822857142857143 -0.06942857142857142 -0.04217142857142857 -0.1270285714285714 -0.10148571428571429 -0.16697142857142858 -0.17245714285714284 -0.03994285714285714 -0.0708 -0.060857142857142846 -0.15068571428571428 -0.061028571428571425 -0.23194285714285715V1.1137714285714286h6.6264v7.584342857142857Z" stroke-width="1"></path><path stroke="#191919" stroke-linecap="round" stroke-linejoin="round" d="M15.3132 8.698114285714285c0 0.08382857142857142 -0.022114285714285715 0.16611428571428571 -0.06445714285714285 0.23845714285714284 -0.042 0.07234285714285714 -0.10268571428571428 0.13217142857142858 -0.17554285714285714 0.17348571428571427 -0.07268571428571428 0.04131428571428571 -0.1553142857142857 0.06257142857142857 -0.23914285714285716 0.06154285714285714 -0.08365714285714286 -0.0010285714285714284 -0.1656 -0.024342857142857142 -0.23742857142857143 -0.06737142857142857L12.236571428571427 7.684285714285714l-2.8577142857142857 1.4900571428571427c-0.07217142857142857 0.03754285714285714 -0.15274285714285712 0.055885714285714275 -0.234 0.05331428571428571 -0.08125714285714285 -0.0025714285714285713 -0.16045714285714285 -0.026228571428571427 -0.23005714285714288 -0.06822857142857143 -0.06942857142857142 -0.04217142857142857 -0.1270285714285714 -0.10148571428571429 -0.16697142857142858 -0.17245714285714284 -0.03994285714285714 -0.0708 -0.060857142857142846 -0.15068571428571428 -0.061028571428571425 -0.23194285714285715V1.1137714285714286h6.6264v7.584342857142857Z" stroke-width="1"></path><path stroke="#191919" stroke-linecap="round" stroke-linejoin="round" d="M17.206457142857143 19.57302857142857V14.38937142857143" stroke-width="1"></path><path stroke="#191919" stroke-linecap="round" stroke-linejoin="round" d="M14.366571428571428 19.57302857142857v-0.924" stroke-width="1"></path><path stroke="#191919" stroke-linecap="round" stroke-linejoin="round" d="M20.046342857142857 19.57302857142857v-0.924" stroke-width="1"></path><path stroke="#191919" stroke-linecap="round" stroke-linejoin="round" d="M11.526685714285714 19.57302857142857V14.38937142857143" stroke-width="1"></path><path stroke="#191919" stroke-linecap="round" stroke-linejoin="round" d="M20.046342857142857 16.282457142857144V14.38937142857143" stroke-width="1"></path><path stroke="#191919" stroke-linecap="round" stroke-linejoin="round" d="M14.366571428571428 16.282457142857144V14.38937142857143" stroke-width="1"></path></svg>